<?xml version="1.0" encoding="UTF-8" standalone="no"?>
<svg
   height="48"
   width="48"
   version="1.1"
   id="svg10479"
   sodipodi:docname="add_circle_FILL0_wght400_GRAD0_opsz48.svg"
   xml:space="preserve"
   inkscape:version="1.2.1 (9c6d41e410, 2022-07-14, custom)"
   xmlns:inkscape="http://www.inkscape.org/namespaces/inkscape"
   xmlns:sodipodi="http://sodipodi.sourceforge.net/DTD/sodipodi-0.dtd"
   xmlns="http://www.w3.org/2000/svg"
   xmlns:svg="http://www.w3.org/2000/svg"><defs
     id="defs10483" /><sodipodi:namedview
     id="namedview10481"
     pagecolor="#505050"
     bordercolor="#eeeeee"
     borderopacity="1"
     inkscape:showpageshadow="0"
     inkscape:pageopacity="0"
     inkscape:pagecheckerboard="0"
     inkscape:deskcolor="#505050"
     showgrid="false"
     inkscape:zoom="15.129139"
     inkscape:cx="11.831473"
     inkscape:cy="23.762093"
     inkscape:window-width="2546"
     inkscape:window-height="1336"
     inkscape:window-x="7"
     inkscape:window-y="7"
     inkscape:window-maximized="1"
     inkscape:current-layer="svg10479" /><path
     d="m 22.65,34 h 3 V 25.7 H 34 v -3 H 25.65 V 14 h -3 v 8.7 H 14 v 3 h 8.65 z M 24,44 Q 19.9,44 16.25,42.425 12.6,40.85 9.875,38.125 7.15,35.4 5.575,31.75 4,28.1 4,23.95 4,19.85 5.575,16.2 7.15,12.55 9.875,9.85 12.6,7.15 16.25,5.575 19.9,4 24.05,4 q 4.1,0 7.75,1.575 3.65,1.575 6.35,4.275 2.7,2.7 4.275,6.35 Q 44,19.85 44,24 q 0,4.1 -1.575,7.75 -1.575,3.65 -4.275,6.375 -2.7,2.725 -6.35,4.3 Q 28.15,44 24,44 Z m 0.05,-3 q 7.05,0 12,-4.975 Q 41,31.05 41,23.95 41,16.9 36.05,11.95 31.1,7 24,7 16.95,7 11.975,11.95 7,16.9 7,24 7,31.05 11.975,36.025 16.95,41 24.05,41 Z M 24,24 Z"
     id="path10477"
     inkscape:label="path10477"
     style="fill:#cccccc"
     sodipodi:insensitive="true" /></svg>
